<svg xmlns="http://www.w3.org/2000/svg" width="16" height="16" viewBox="0 0 16 16" fill="currentColor">
  <g clipPath="url(#clip0_edit)">
    <path d="M11.705 14.8413H4.07225C2.46425 14.8413 1.15625 13.5333 1.15625 11.9253V4.55174C1.15625 2.94374 2.46425 1.63574 4.07225 1.63574H7.93545C8.24505 1.63574 8.49545 1.88614 8.49545 2.19574C8.49545 2.50534 8.24505 2.75574 7.93545 2.75574H4.07225C3.08185 2.75574 2.27625 3.56134 2.27625 4.55174V11.9253C2.27625 12.9157 3.08185 13.7213 4.07225 13.7213H11.705C12.6954 13.7213 13.501 12.9157 13.501 11.9253V8.27414C13.501 7.96454 13.7514 7.71414 14.061 7.71414C14.3706 7.71414 14.621 7.96454 14.621 8.27414V11.9253C14.621 13.5333 13.313 14.8413 11.705 14.8413Z" />
    <path d="M6.38932 10.6212C6.11812 10.6212 5.85652 10.5116 5.66452 10.3116C5.54929 10.192 5.46563 10.0455 5.42108 9.88548C5.37654 9.72544 5.37249 9.55683 5.40932 9.39484L5.78612 7.71644C5.82772 7.53004 5.92132 7.36044 6.05652 7.22524L11.9477 1.33404C12.3397 0.942039 12.9781 0.942039 13.3701 1.33404L14.7381 2.70204C15.1301 3.09404 15.1301 3.73244 14.7381 4.12444L8.85412 10.0084C8.70941 10.1534 8.52374 10.2506 8.32212 10.2868L6.57092 10.6044C6.50932 10.6164 6.44932 10.6212 6.38932 10.6212ZM6.87092 7.99484L6.53972 9.47244L8.08612 9.19164L13.8637 3.41404L12.6581 2.20844L6.87092 7.99484Z" />
  </g>
  <defs>
    <clipPath id="clip0_edit">
      <rect width="16" height="16" fill="white" />
    </clipPath>
  </defs>
</svg>
