<svg width="20" height="20" viewBox="0 0 20 20" fill="none" xmlns="http://www.w3.org/2000/svg">
<path d="M18.4595 6.44331C18.1159 6.10366 17.562 6.10776 17.2218 6.4519C16.4946 7.18921 15.6729 7.80054 14.7827 8.27534C14.7271 8.2975 14.6739 8.32525 14.6239 8.35815C13.7372 8.81108 12.7854 9.13022 11.7933 9.30522C11.7645 9.30835 11.7356 9.31284 11.7067 9.3187C11.7001 9.32007 11.6936 9.32182 11.687 9.32319C11.1302 9.41538 10.5612 9.46264 9.98407 9.46264C9.43876 9.46264 8.90068 9.42046 8.37333 9.33803C8.34833 9.33061 8.32294 9.32397 8.29677 9.3185C8.24814 9.30835 8.1995 9.30268 8.15165 9.30073C7.20927 9.13218 6.30341 8.83374 5.45556 8.41401C5.35953 8.3345 5.24758 8.27649 5.12724 8.24389C4.26161 7.77475 3.46181 7.17593 2.75185 6.45737C2.41161 6.11284 1.8579 6.1103 1.51415 6.44975C1.17021 6.7894 1.16669 7.3437 1.50654 7.68745C2.13154 8.32007 2.81591 8.87358 3.54736 9.34311L2.14677 11.0273C1.83779 11.3992 1.88857 11.9507 2.26005 12.2601C2.41707 12.3909 2.61504 12.4625 2.81943 12.4623C3.07021 12.4623 3.31982 12.355 3.49286 12.1468L5.11962 10.1908C5.75204 10.472 6.40966 10.697 7.08603 10.8636L6.67665 12.8574C6.57919 13.3308 6.88427 13.7937 7.3579 13.8908C7.41728 13.9031 7.47665 13.9087 7.53486 13.9087C7.94169 13.9087 8.30614 13.6238 8.3913 13.2095L8.81279 11.157C9.1995 11.1941 9.59013 11.2128 9.98407 11.2128C10.3897 11.2128 10.7923 11.1929 11.1901 11.1537L11.6122 13.2095C11.6972 13.6236 12.0618 13.9087 12.4686 13.9087C12.5268 13.9087 12.5862 13.9033 12.6456 13.8908C13.119 13.7937 13.4243 13.331 13.3268 12.8574L12.9157 10.8554C13.5893 10.6873 14.2442 10.4611 14.8741 10.1791L16.5106 12.1466C16.6837 12.3548 16.9333 12.4621 17.1841 12.4621C17.3815 12.4621 17.5798 12.3958 17.7435 12.2599C18.1147 11.9505 18.1657 11.3988 17.8567 11.0271L16.4434 9.32788C17.1688 8.85991 17.8476 8.30932 18.4677 7.68042C18.8075 7.33686 18.8036 6.78257 18.4595 6.44331Z" fill="currentColor"/>
</svg>
