<svg width="20" height="20" viewBox="0 0 20 20" fill="none" xmlns="http://www.w3.org/2000/svg">
<path d="M9.94153 16.6096C8.02767 16.6096 6.18528 16.0221 4.614 14.9109C3.08392 13.8287 1.90814 12.3242 1.2136 10.5602C1.1164 10.3129 1.1112 10.0389 1.19896 9.78809C1.522 8.86621 1.97923 8.00176 2.55794 7.21855C3.13118 6.44277 3.81243 5.76191 4.58255 5.19492C6.18568 4.01465 8.07845 3.39062 10.0564 3.39062C12.0343 3.39062 13.8126 3.97813 15.3839 5.08926C16.914 6.17148 18.0898 7.67598 18.7843 9.44004C18.8816 9.68731 18.8868 9.96132 18.799 10.2121C18.4759 11.134 18.0185 11.9986 17.4398 12.7816C16.8665 13.5574 16.1853 14.2383 15.4152 14.8053C13.812 15.9855 11.9193 16.6096 9.94134 16.6096H9.94153ZM2.58587 10.1479C3.84075 13.2105 6.71536 15.1824 9.94153 15.1824C13.1677 15.1824 16.2417 13.0453 17.412 9.85195C16.1572 6.78926 13.2826 4.81738 10.0564 4.81738C6.74368 4.81738 3.75618 6.95469 2.58587 10.1479Z" fill="currentColor"/>
<path d="M10.0002 13.3694C8.14238 13.3694 6.63086 11.8578 6.63086 9.99983C6.63086 8.14182 8.14238 6.63049 10.0002 6.63049C11.858 6.63049 13.3695 8.14202 13.3695 9.99983C13.3695 11.8576 11.858 13.3694 10.0002 13.3694ZM10.0002 8.05745C8.9291 8.05745 8.05781 8.92874 8.05781 9.99983C8.05781 11.0709 8.9291 11.9422 10.0002 11.9422C11.0713 11.9422 11.9426 11.0709 11.9426 9.99983C11.9426 8.92874 11.0713 8.05745 10.0002 8.05745Z" fill="currentColor"/>
</svg>
